<svg width="24" height="24" viewBox="0 0 24 24" fill="none" xmlns="http://www.w3.org/2000/svg">
<g id="vuesax/linear/messages-2">
<g id="messages-2">
<path id="Vector" d="M18.4738 16.8295L18.8638 19.9895C18.9638 20.8195 18.0738 21.3995 17.3638 20.9695L13.1738 18.4795C12.7138 18.4795 12.2638 18.4495 11.8238 18.3895C12.5638 17.5195 13.0038 16.4195 13.0038 15.2295C13.0038 12.3895 10.5438 10.0895 7.50375 10.0895C6.34375 10.0895 5.27376 10.4195 4.38376 10.9995C4.35376 10.7495 4.34375 10.4995 4.34375 10.2395C4.34375 5.6895 8.29375 1.99951 13.1738 1.99951C18.0538 1.99951 22.0038 5.6895 22.0038 10.2395C22.0038 12.9395 20.6138 15.3295 18.4738 16.8295Z" stroke="#636363" stroke-width="1.5" stroke-linecap="round" stroke-linejoin="round"/>
<path id="Vector_2" d="M13 15.2298C13 16.4198 12.56 17.5198 11.82 18.3898C10.83 19.5898 9.26 20.3598 7.5 20.3598L4.89 21.9098C4.45 22.1798 3.89 21.8098 3.95 21.2998L4.2 19.3298C2.86 18.3998 2 16.9098 2 15.2298C2 13.4698 2.94 11.9198 4.38001 10.9998C5.27001 10.4198 6.34 10.0898 7.5 10.0898C10.54 10.0898 13 12.3898 13 15.2298Z" stroke="#636363" stroke-width="1.5" stroke-linecap="round" stroke-linejoin="round"/>
</g>
</g>
</svg>
